<svg data-name="レイヤー 2" xmlns="http://www.w3.org/2000/svg" viewBox="0 0 190.99 25"><path d="M13.05 19.9v-1.93c-1.23 1.54-3.16 2.4-5.5 2.4-4.18 0-7.56-3.47-7.56-7.74s3.47-7.71 7.56-7.71c2.33 0 4.27.86 5.5 2.4V5.23h1.29v14.68h-1.29Zm0-3.9V9.3c-.92-1.9-3.07-3.16-5.5-3.16-3.41 0-6.23 2.95-6.23 6.48s2.83 6.51 6.23 6.51c2.43 0 4.58-1.26 5.5-3.13Zm14.8 3.9V5.22h1.29v2c1.14-1.47 2.92-2.3 5.04-2.3 3.65 0 5.8 2.15 6.14 5.56H39c-.34-2.89-2-4.27-4.98-4.27-2.15 0-4.05 1.2-4.88 3.04v10.66h-1.29ZM52.36 5.22h2V.92h1.29v4.3h7.52v1.23h-7.52v8.14c0 2.86 1.2 4.55 3.81 4.55 1.44 0 2.49-.4 3.5-.95l.58 1.04c-1.23.68-2.43 1.14-4.08 1.14-3.47 0-5.1-2.18-5.1-5.77V6.45h-2V5.22Zm36.36 10.84.95.77c-1.32 2.09-3.62 3.53-6.48 3.53-4.76 0-7.71-3.47-7.71-7.74s3.32-7.71 7.4-7.71 7.4 3.47 7.4 7.71c0 .43-.06.92-.06.92H76.86c.4 3.13 2.83 5.59 6.33 5.59 2.58 0 4.42-1.32 5.53-3.07ZM76.8 12.31h12.19c-.15-3.38-2.83-6.17-6.11-6.17s-5.93 2.79-6.08 6.17ZM103.4 25V5.22h1.29v2.09c1.23-1.54 3.16-2.4 5.5-2.4 4.08 0 7.56 3.47 7.56 7.71s-3.38 7.74-7.56 7.74c-2.33 0-4.27-.86-5.5-2.4v7.03h-1.29Zm13.02-12.38c0-3.53-2.83-6.48-6.23-6.48-2.46 0-4.61 1.26-5.5 3.16V16c.89 1.87 3.04 3.13 5.5 3.13 3.41 0 6.23-2.95 6.23-6.51Zm27.28 3.44.95.77c-1.32 2.09-3.62 3.53-6.48 3.53-4.76 0-7.71-3.47-7.71-7.74s3.32-7.71 7.4-7.71 7.4 3.47 7.4 7.71c0 .43-.06.92-.06.92h-13.36c.4 3.13 2.83 5.59 6.33 5.59 2.58 0 4.42-1.32 5.53-3.07Zm-11.92-3.75h12.19c-.15-3.38-2.83-6.17-6.11-6.17s-5.93 2.79-6.08 6.17ZM158.99 0h1.29v15.26c0 2.18.92 3.62 2.64 3.62v1.23c-2.49 0-3.93-2-3.93-4.85V0Zm24.26 20.36c-4.24 0-7.71-3.47-7.71-7.74s3.47-7.71 7.71-7.71 7.74 3.47 7.74 7.71-3.47 7.74-7.74 7.74Zm0-14.22c-3.47 0-6.39 2.95-6.39 6.48s2.92 6.51 6.39 6.51 6.42-2.95 6.42-6.51-2.92-6.48-6.42-6.48Z" style="fill:#fff" data-name="デザイン"/></svg>